<svg width="39" height="39" viewBox="0 0 39 39" fill="none" xmlns="http://www.w3.org/2000/svg">
<path d="M39 19.5C39 30.2719 30.2688 39 19.5 39C8.7312 39 0 30.2719 0 19.5C0 8.73435 8.7312 0 19.5 0C30.2688 0 39 8.73435 39 19.5ZM20.0233 6.44758C15.7382 6.44758 13.0052 8.25267 10.8591 11.4608C10.5811 11.8764 10.6741 12.437 11.0726 12.7392L13.801 14.8079C14.2102 15.1182 14.7933 15.0444 15.1113 14.641C16.5159 12.8595 17.4791 11.8264 19.617 11.8264C21.2233 11.8264 23.2102 12.8602 23.2102 14.4178C23.2102 15.5954 22.2381 16.2001 20.6521 17.0893C18.8024 18.1262 16.3548 19.4167 16.3548 22.6452V22.9597C16.3548 23.4808 16.7773 23.9032 17.2984 23.9032H21.7016C22.2227 23.9032 22.6452 23.4808 22.6452 22.9597V22.8549C22.6452 20.6169 29.186 20.5237 29.186 14.4677C29.186 9.9071 24.4553 6.44758 20.0233 6.44758V6.44758ZM19.5 25.9476C17.5056 25.9476 15.8831 27.5701 15.8831 29.5645C15.8831 31.5589 17.5056 33.1815 19.5 33.1815C21.4944 33.1815 23.1169 31.5589 23.1169 29.5645C23.1169 27.5701 21.4944 25.9476 19.5 25.9476Z" fill="black"/>
</svg>
