<svg width="662" height="506" viewBox="0 0 662 506" fill="none" xmlns="http://www.w3.org/2000/svg">
<g clip-path="url(#clip0)">
<path d="M94.5622 298.228C117.73 298.228 136.511 279.447 136.511 256.279C136.511 233.112 117.73 214.331 94.5622 214.331C71.3947 214.331 52.6137 233.112 52.6137 256.279C52.6137 279.447 71.3947 298.228 94.5622 298.228Z" fill="#FF6584"/>
<path d="M180.468 493.223H180.426C178.948 493.221 177.532 492.634 176.488 491.589C175.443 490.545 174.856 489.129 174.854 487.651V160.584C174.856 159.107 175.443 157.691 176.488 156.647C177.532 155.602 178.948 155.015 180.426 155.013H455.713C457.19 155.015 458.606 155.602 459.65 156.646C460.695 157.691 461.282 159.107 461.284 160.584V414.897C461.282 416.367 460.701 417.776 459.666 418.819C458.63 419.863 457.225 420.455 455.756 420.468L180.468 493.223Z" fill="#F2F2F2"/>
<path d="M383.941 108.804H256.13V34.7386C256.131 33.1746 256.753 31.6752 257.859 30.5694C258.965 29.4635 260.465 28.8414 262.029 28.8396H378.042C379.606 28.8414 381.106 29.4635 382.212 30.5694C383.318 31.6752 383.94 33.1746 383.941 34.7386V108.804ZM257.44 107.493H382.631V34.7386C382.629 33.5222 382.145 32.356 381.285 31.4958C380.425 30.6357 379.259 30.1519 378.042 30.1505H262.029C260.812 30.1519 259.646 30.6357 258.786 31.4958C257.926 32.356 257.442 33.5222 257.44 34.7386V107.493Z" fill="#3F3D56"/>
<path d="M292.507 57.0237H347.564C348.955 57.0237 350.289 57.5762 351.272 58.5595C352.255 59.5429 352.808 60.8766 352.808 62.2673V140.921H287.263V62.2673C287.263 60.8766 287.816 59.5429 288.799 58.5595C289.782 57.5762 291.116 57.0237 292.507 57.0237Z" fill="#E6E6E6"/>
<path d="M303.322 30.1505H276.448V3.27723C276.449 2.40836 276.795 1.57536 277.409 0.960975C278.024 0.346591 278.857 0.000994017 279.726 0H300.044C300.913 0.000994017 301.746 0.346591 302.361 0.960975C302.975 1.57536 303.321 2.40836 303.322 3.27723V30.1505ZM277.759 28.8396H302.011V3.27723C302.01 2.7559 301.803 2.25608 301.434 1.88745C301.066 1.51881 300.566 1.31146 300.044 1.31089H279.726C279.204 1.31146 278.704 1.51881 278.336 1.88745C277.967 2.25608 277.76 2.7559 277.759 3.27723V28.8396Z" fill="#3F3D56"/>
<path d="M192.722 114.048L193.207 115.004C193.422 115.417 193.534 115.876 193.534 116.342V142.232H216.475V116.342C216.475 115.876 216.588 115.417 216.803 115.004L217.288 114.048H192.722ZM215.164 116.342V140.921H194.845V116.342C194.846 116.01 194.806 115.68 194.727 115.358H215.282C215.203 115.68 215.164 116.01 215.164 116.342V116.342ZM221.561 114.048L222.046 115.004C222.261 115.417 222.374 115.876 222.374 116.342V142.232H245.315V116.342C245.315 115.876 245.427 115.417 245.642 115.004L246.128 114.048H221.561ZM244.004 116.342V140.921H223.685V116.342C223.685 116.01 223.646 115.68 223.567 115.358H244.122C244.043 115.68 244.003 116.01 244.004 116.342V116.342ZM250.401 114.048L250.886 115.004C251.101 115.417 251.213 115.876 251.214 116.342V142.232H274.154V116.342C274.155 115.876 274.267 115.417 274.482 115.004L274.967 114.048H250.401ZM272.843 116.342V140.921H252.525V116.342C252.525 116.01 252.485 115.68 252.406 115.358H272.961C272.883 115.68 272.843 116.01 272.843 116.342ZM279.24 114.048L279.726 115.004C279.941 115.417 280.053 115.876 280.053 116.342V142.232H302.994V116.342C302.994 115.876 303.107 115.417 303.322 115.004L303.807 114.048H279.24ZM301.683 116.342V140.921H281.364V116.342C281.365 116.01 281.325 115.68 281.246 115.358H301.801C301.722 115.68 301.683 116.01 301.683 116.342ZM308.08 114.048L308.565 115.004C308.78 115.417 308.893 115.876 308.893 116.342V142.232H331.833V116.342C331.834 115.876 331.946 115.417 332.161 115.004L332.646 114.048H308.08ZM330.523 116.342V140.921H310.204V116.342C310.204 116.01 310.164 115.68 310.086 115.358H330.641C330.562 115.68 330.522 116.01 330.523 116.342V116.342ZM336.92 114.048L337.405 115.004C337.62 115.417 337.732 115.876 337.733 116.342V142.232H360.673V116.342C360.673 115.876 360.786 115.417 361.001 115.004L361.486 114.048H336.92ZM359.362 116.342V140.921H339.043V116.342C339.044 116.01 339.004 115.68 338.925 115.358H359.48C359.401 115.68 359.362 116.01 359.362 116.342V116.342ZM365.759 114.048L366.244 115.004C366.459 115.417 366.572 115.876 366.572 116.342V142.232H389.513V116.342C389.513 115.876 389.625 115.417 389.84 115.004L390.326 114.048H365.759ZM388.202 116.342V140.921H367.883V116.342C367.883 116.01 367.844 115.68 367.765 115.358H388.32C388.241 115.68 388.201 116.01 388.202 116.342ZM394.599 114.048L395.084 115.004C395.299 115.417 395.411 115.876 395.412 116.342V142.232H418.352V116.342C418.353 115.876 418.465 115.417 418.68 115.004L419.165 114.048H394.599ZM417.041 116.342V140.921H396.723V116.342C396.723 116.01 396.683 115.68 396.605 115.358H417.16C417.081 115.68 417.041 116.01 417.041 116.342ZM423.438 114.048L423.924 115.004C424.139 115.417 424.251 115.876 424.251 116.342V142.232H447.192V116.342C447.192 115.876 447.305 115.417 447.52 115.004L448.005 114.048H423.438ZM445.881 116.342V140.921H425.562V116.342C425.563 116.01 425.523 115.68 425.444 115.358H445.999C445.92 115.68 445.881 116.01 445.881 116.342ZM423.438 114.048L423.924 115.004C424.139 115.417 424.251 115.876 424.251 116.342V142.232H447.192V116.342C447.192 115.876 447.305 115.417 447.52 115.004L448.005 114.048H423.438ZM445.881 116.342V140.921H425.562V116.342C425.563 116.01 425.523 115.68 425.444 115.358H445.999C445.92 115.68 445.881 116.01 445.881 116.342ZM394.599 114.048L395.084 115.004C395.299 115.417 395.411 115.876 395.412 116.342V142.232H418.352V116.342C418.353 115.876 418.465 115.417 418.68 115.004L419.165 114.048H394.599ZM417.041 116.342V140.921H396.723V116.342C396.723 116.01 396.683 115.68 396.605 115.358H417.16C417.081 115.68 417.041 116.01 417.041 116.342ZM365.759 114.048L366.244 115.004C366.459 115.417 366.572 115.876 366.572 116.342V142.232H389.513V116.342C389.513 115.876 389.625 115.417 389.84 115.004L390.326 114.048H365.759ZM388.202 116.342V140.921H367.883V116.342C367.883 116.01 367.844 115.68 367.765 115.358H388.32C388.241 115.68 388.201 116.01 388.202 116.342ZM336.92 114.048L337.405 115.004C337.62 115.417 337.732 115.876 337.733 116.342V142.232H360.673V116.342C360.673 115.876 360.786 115.417 361.001 115.004L361.486 114.048H336.92ZM359.362 116.342V140.921H339.043V116.342C339.044 116.01 339.004 115.68 338.925 115.358H359.48C359.401 115.68 359.362 116.01 359.362 116.342V116.342ZM308.08 114.048L308.565 115.004C308.78 115.417 308.893 115.876 308.893 116.342V142.232H331.833V116.342C331.834 115.876 331.946 115.417 332.161 115.004L332.646 114.048H308.08ZM330.523 116.342V140.921H310.204V116.342C310.204 116.01 310.164 115.68 310.086 115.358H330.641C330.562 115.68 330.522 116.01 330.523 116.342V116.342ZM279.24 114.048L279.726 115.004C279.941 115.417 280.053 115.876 280.053 116.342V142.232H302.994V116.342C302.994 115.876 303.107 115.417 303.322 115.004L303.807 114.048H279.24ZM301.683 116.342V140.921H281.364V116.342C281.365 116.01 281.325 115.68 281.246 115.358H301.801C301.722 115.68 301.683 116.01 301.683 116.342ZM250.401 114.048L250.886 115.004C251.101 115.417 251.213 115.876 251.214 116.342V142.232H274.154V116.342C274.155 115.876 274.267 115.417 274.482 115.004L274.967 114.048H250.401ZM272.843 116.342V140.921H252.525V116.342C252.525 116.01 252.485 115.68 252.406 115.358H272.961C272.883 115.68 272.843 116.01 272.843 116.342ZM221.561 114.048L222.046 115.004C222.261 115.417 222.374 115.876 222.374 116.342V142.232H245.315V116.342C245.315 115.876 245.427 115.417 245.642 115.004L246.128 114.048H221.561ZM244.004 116.342V140.921H223.685V116.342C223.685 116.01 223.646 115.68 223.567 115.358H244.122C244.043 115.68 244.003 116.01 244.004 116.342V116.342ZM192.722 114.048L193.207 115.004C193.422 115.417 193.534 115.876 193.534 116.342V142.232H216.475V116.342C216.475 115.876 216.588 115.417 216.803 115.004L217.288 114.048H192.722ZM215.164 116.342V140.921H194.845V116.342C194.846 116.01 194.806 115.68 194.727 115.358H215.282C215.203 115.68 215.164 116.01 215.164 116.342V116.342ZM423.438 114.048L423.924 115.004C424.139 115.417 424.251 115.876 424.251 116.342V142.232H447.192V116.342C447.192 115.876 447.305 115.417 447.52 115.004L448.005 114.048H423.438ZM445.881 116.342V140.921H425.562V116.342C425.563 116.01 425.523 115.68 425.444 115.358H445.999C445.92 115.68 445.881 116.01 445.881 116.342ZM394.599 114.048L395.084 115.004C395.299 115.417 395.411 115.876 395.412 116.342V142.232H418.352V116.342C418.353 115.876 418.465 115.417 418.68 115.004L419.165 114.048H394.599ZM417.041 116.342V140.921H396.723V116.342C396.723 116.01 396.683 115.68 396.605 115.358H417.16C417.081 115.68 417.041 116.01 417.041 116.342ZM365.759 114.048L366.244 115.004C366.459 115.417 366.572 115.876 366.572 116.342V142.232H389.513V116.342C389.513 115.876 389.625 115.417 389.84 115.004L390.326 114.048H365.759ZM388.202 116.342V140.921H367.883V116.342C367.883 116.01 367.844 115.68 367.765 115.358H388.32C388.241 115.68 388.201 116.01 388.202 116.342ZM336.92 114.048L337.405 115.004C337.62 115.417 337.732 115.876 337.733 116.342V142.232H360.673V116.342C360.673 115.876 360.786 115.417 361.001 115.004L361.486 114.048H336.92ZM359.362 116.342V140.921H339.043V116.342C339.044 116.01 339.004 115.68 338.925 115.358H359.48C359.401 115.68 359.362 116.01 359.362 116.342V116.342ZM308.08 114.048L308.565 115.004C308.78 115.417 308.893 115.876 308.893 116.342V142.232H331.833V116.342C331.834 115.876 331.946 115.417 332.161 115.004L332.646 114.048H308.08ZM330.523 116.342V140.921H310.204V116.342C310.204 116.01 310.164 115.68 310.086 115.358H330.641C330.562 115.68 330.522 116.01 330.523 116.342V116.342ZM279.24 114.048L279.726 115.004C279.941 115.417 280.053 115.876 280.053 116.342V142.232H302.994V116.342C302.994 115.876 303.107 115.417 303.322 115.004L303.807 114.048H279.24ZM301.683 116.342V140.921H281.364V116.342C281.365 116.01 281.325 115.68 281.246 115.358H301.801C301.722 115.68 301.683 116.01 301.683 116.342ZM250.401 114.048L250.886 115.004C251.101 115.417 251.213 115.876 251.214 116.342V142.232H274.154V116.342C274.155 115.876 274.267 115.417 274.482 115.004L274.967 114.048H250.401ZM272.843 116.342V140.921H252.525V116.342C252.525 116.01 252.485 115.68 252.406 115.358H272.961C272.883 115.68 272.843 116.01 272.843 116.342ZM221.561 114.048L222.046 115.004C222.261 115.417 222.374 115.876 222.374 116.342V142.232H245.315V116.342C245.315 115.876 245.427 115.417 245.642 115.004L246.128 114.048H221.561ZM244.004 116.342V140.921H223.685V116.342C223.685 116.01 223.646 115.68 223.567 115.358H244.122C244.043 115.68 244.003 116.01 244.004 116.342V116.342ZM192.722 114.048L193.207 115.004C193.422 115.417 193.534 115.876 193.534 116.342V142.232H216.475V116.342C216.475 115.876 216.588 115.417 216.803 115.004L217.288 114.048H192.722ZM215.164 116.342V140.921H194.845V116.342C194.846 116.01 194.806 115.68 194.727 115.358H215.282C215.203 115.68 215.164 116.01 215.164 116.342V116.342ZM423.438 114.048L423.924 115.004C424.139 115.417 424.251 115.876 424.251 116.342V142.232H447.192V116.342C447.192 115.876 447.305 115.417 447.52 115.004L448.005 114.048H423.438ZM445.881 116.342V140.921H425.562V116.342C425.563 116.01 425.523 115.68 425.444 115.358H445.999C445.92 115.68 445.881 116.01 445.881 116.342ZM394.599 114.048L395.084 115.004C395.299 115.417 395.411 115.876 395.412 116.342V142.232H418.352V116.342C418.353 115.876 418.465 115.417 418.68 115.004L419.165 114.048H394.599ZM417.041 116.342V140.921H396.723V116.342C396.723 116.01 396.683 115.68 396.605 115.358H417.16C417.081 115.68 417.041 116.01 417.041 116.342ZM365.759 114.048L366.244 115.004C366.459 115.417 366.572 115.876 366.572 116.342V142.232H389.513V116.342C389.513 115.876 389.625 115.417 389.84 115.004L390.326 114.048H365.759ZM388.202 116.342V140.921H367.883V116.342C367.883 116.01 367.844 115.68 367.765 115.358H388.32C388.241 115.68 388.201 116.01 388.202 116.342ZM336.92 114.048L337.405 115.004C337.62 115.417 337.732 115.876 337.733 116.342V142.232H360.673V116.342C360.673 115.876 360.786 115.417 361.001 115.004L361.486 114.048H336.92ZM359.362 116.342V140.921H339.043V116.342C339.044 116.01 339.004 115.68 338.925 115.358H359.48C359.401 115.68 359.362 116.01 359.362 116.342V116.342ZM308.08 114.048L308.565 115.004C308.78 115.417 308.893 115.876 308.893 116.342V142.232H331.833V116.342C331.834 115.876 331.946 115.417 332.161 115.004L332.646 114.048H308.08ZM330.523 116.342V140.921H310.204V116.342C310.204 116.01 310.164 115.68 310.086 115.358H330.641C330.562 115.68 330.522 116.01 330.523 116.342V116.342ZM279.24 114.048L279.726 115.004C279.941 115.417 280.053 115.876 280.053 116.342V142.232H302.994V116.342C302.994 115.876 303.107 115.417 303.322 115.004L303.807 114.048H279.24ZM301.683 116.342V140.921H281.364V116.342C281.365 116.01 281.325 115.68 281.246 115.358H301.801C301.722 115.68 301.683 116.01 301.683 116.342ZM250.401 114.048L250.886 115.004C251.101 115.417 251.213 115.876 251.214 116.342V142.232H274.154V116.342C274.155 115.876 274.267 115.417 274.482 115.004L274.967 114.048H250.401ZM272.843 116.342V140.921H252.525V116.342C252.525 116.01 252.485 115.68 252.406 115.358H272.961C272.883 115.68 272.843 116.01 272.843 116.342ZM221.561 114.048L222.046 115.004C222.261 115.417 222.374 115.876 222.374 116.342V142.232H245.315V116.342C245.315 115.876 245.427 115.417 245.642 115.004L246.128 114.048H221.561ZM244.004 116.342V140.921H223.685V116.342C223.685 116.01 223.646 115.68 223.567 115.358H244.122C244.043 115.68 244.003 116.01 244.004 116.342V116.342ZM192.722 114.048L193.207 115.004C193.422 115.417 193.534 115.876 193.534 116.342V142.232H216.475V116.342C216.475 115.876 216.588 115.417 216.803 115.004L217.288 114.048H192.722ZM215.164 116.342V140.921H194.845V116.342C194.846 116.01 194.806 115.68 194.727 115.358H215.282C215.203 115.68 215.164 116.01 215.164 116.342V116.342ZM423.438 114.048L423.924 115.004C424.139 115.417 424.251 115.876 424.251 116.342V142.232H447.192V116.342C447.192 115.876 447.305 115.417 447.52 115.004L448.005 114.048H423.438ZM445.881 116.342V140.921H425.562V116.342C425.563 116.01 425.523 115.68 425.444 115.358H445.999C445.92 115.68 445.881 116.01 445.881 116.342ZM394.599 114.048L395.084 115.004C395.299 115.417 395.411 115.876 395.412 116.342V142.232H418.352V116.342C418.353 115.876 418.465 115.417 418.68 115.004L419.165 114.048H394.599ZM417.041 116.342V140.921H396.723V116.342C396.723 116.01 396.683 115.68 396.605 115.358H417.16C417.081 115.68 417.041 116.01 417.041 116.342ZM365.759 114.048L366.244 115.004C366.459 115.417 366.572 115.876 366.572 116.342V142.232H389.513V116.342C389.513 115.876 389.625 115.417 389.84 115.004L390.326 114.048H365.759ZM388.202 116.342V140.921H367.883V116.342C367.883 116.01 367.844 115.68 367.765 115.358H388.32C388.241 115.68 388.201 116.01 388.202 116.342ZM336.92 114.048L337.405 115.004C337.62 115.417 337.732 115.876 337.733 116.342V142.232H360.673V116.342C360.673 115.876 360.786 115.417 361.001 115.004L361.486 114.048H336.92ZM359.362 116.342V140.921H339.043V116.342C339.044 116.01 339.004 115.68 338.925 115.358H359.48C359.401 115.68 359.362 116.01 359.362 116.342V116.342ZM308.08 114.048L308.565 115.004C308.78 115.417 308.893 115.876 308.893 116.342V142.232H331.833V116.342C331.834 115.876 331.946 115.417 332.161 115.004L332.646 114.048H308.08ZM330.523 116.342V140.921H310.204V116.342C310.204 116.01 310.164 115.68 310.086 115.358H330.641C330.562 115.68 330.522 116.01 330.523 116.342V116.342ZM279.24 114.048L279.726 115.004C279.941 115.417 280.053 115.876 280.053 116.342V142.232H302.994V116.342C302.994 115.876 303.107 115.417 303.322 115.004L303.807 114.048H279.24ZM301.683 116.342V140.921H281.364V116.342C281.365 116.01 281.325 115.68 281.246 115.358H301.801C301.722 115.68 301.683 116.01 301.683 116.342ZM250.401 114.048L250.886 115.004C251.101 115.417 251.213 115.876 251.214 116.342V142.232H274.154V116.342C274.155 115.876 274.267 115.417 274.482 115.004L274.967 114.048H250.401ZM272.843 116.342V140.921H252.525V116.342C252.525 116.01 252.485 115.68 252.406 115.358H272.961C272.883 115.68 272.843 116.01 272.843 116.342ZM221.561 114.048L222.046 115.004C222.261 115.417 222.374 115.876 222.374 116.342V142.232H245.315V116.342C245.315 115.876 245.427 115.417 245.642 115.004L246.128 114.048H221.561ZM244.004 116.342V140.921H223.685V116.342C223.685 116.01 223.646 115.68 223.567 115.358H244.122C244.043 115.68 244.003 116.01 244.004 116.342V116.342ZM192.722 114.048L193.207 115.004C193.422 115.417 193.534 115.876 193.534 116.342V142.232H216.475V116.342C216.475 115.876 216.588 115.417 216.803 115.004L217.288 114.048H192.722ZM215.164 116.342V140.921H194.845V116.342C194.846 116.01 194.806 115.68 194.727 115.358H215.282C215.203 115.68 215.164 116.01 215.164 116.342V116.342ZM423.438 114.048L423.924 115.004C424.139 115.417 424.251 115.876 424.251 116.342V142.232H447.192V116.342C447.192 115.876 447.305 115.417 447.52 115.004L448.005 114.048H423.438ZM445.881 116.342V140.921H425.562V116.342C425.563 116.01 425.523 115.68 425.444 115.358H445.999C445.92 115.68 445.881 116.01 445.881 116.342ZM395.084 115.004C395.299 115.417 395.411 115.876 395.412 116.342V142.232H418.352V116.342C418.353 115.876 418.465 115.417 418.68 115.004L419.165 114.048H394.599L395.084 115.004ZM417.16 115.358C417.081 115.68 417.041 116.01 417.041 116.342V140.921H396.723V116.342C396.723 116.01 396.683 115.68 396.605 115.358H417.16ZM366.244 115.004C366.459 115.417 366.572 115.876 366.572 116.342V142.232H389.513V116.342C389.513 115.876 389.625 115.417 389.84 115.004L390.326 114.048H365.759L366.244 115.004ZM388.32 115.358C388.241 115.68 388.201 116.01 388.202 116.342V140.921H367.883V116.342C367.883 116.01 367.844 115.68 367.765 115.358H388.32ZM337.405 115.004C337.62 115.417 337.732 115.876 337.733 116.342V142.232H360.673V116.342C360.673 115.876 360.786 115.417 361.001 115.004L361.486 114.048H336.92L337.405 115.004ZM359.48 115.358C359.401 115.68 359.362 116.01 359.362 116.342V140.921H339.043V116.342C339.044 116.01 339.004 115.68 338.925 115.358H359.48ZM308.565 115.004C308.78 115.417 308.893 115.876 308.893 116.342V142.232H331.833V116.342C331.834 115.876 331.946 115.417 332.161 115.004L332.646 114.048H308.08L308.565 115.004ZM330.641 115.358C330.562 115.68 330.522 116.01 330.523 116.342V140.921H310.204V116.342C310.204 116.01 310.164 115.68 310.086 115.358H330.641ZM279.726 115.004C279.941 115.417 280.053 115.876 280.053 116.342V142.232H302.994V116.342C302.994 115.876 303.107 115.417 303.322 115.004L303.807 114.048H279.24L279.726 115.004ZM301.801 115.358C301.722 115.68 301.683 116.01 301.683 116.342V140.921H281.364V116.342C281.365 116.01 281.325 115.68 281.246 115.358H301.801ZM250.886 115.004C251.101 115.417 251.213 115.876 251.214 116.342V142.232H274.154V116.342C274.155 115.876 274.267 115.417 274.482 115.004L274.967 114.048H250.401L250.886 115.004ZM272.961 115.358C272.883 115.68 272.843 116.01 272.843 116.342V140.921H252.525V116.342C252.525 116.01 252.485 115.68 252.406 115.358H272.961ZM222.046 115.004C222.261 115.417 222.374 115.876 222.374 116.342V142.232H245.315V116.342C245.315 115.876 245.427 115.417 245.642 115.004L246.128 114.048H221.561L222.046 115.004ZM244.122 115.358C244.043 115.68 244.003 116.01 244.004 116.342V140.921H223.685V116.342C223.685 116.01 223.646 115.68 223.567 115.358H244.122ZM193.207 115.004C193.422 115.417 193.534 115.876 193.534 116.342V142.232H216.475V116.342C216.475 115.876 216.588 115.417 216.803 115.004L217.288 114.048H192.722L193.207 115.004ZM215.282 115.358C215.203 115.68 215.164 116.01 215.164 116.342V140.921H194.845V116.342C194.846 116.01 194.806 115.68 194.727 115.358H215.282ZM423.924 115.004C424.139 115.417 424.251 115.876 424.251 116.342V142.232H447.192V116.342C447.192 115.876 447.305 115.417 447.52 115.004L448.005 114.048H423.438L423.924 115.004ZM445.999 115.358C445.92 115.68 445.881 116.01 445.881 116.342V140.921H425.562V116.342C425.563 116.01 425.523 115.68 425.444 115.358H445.999ZM395.084 115.004C395.299 115.417 395.411 115.876 395.412 116.342V142.232H418.352V116.342C418.353 115.876 418.465 115.417 418.68 115.004L419.165 114.048H394.599L395.084 115.004ZM417.16 115.358C417.081 115.68 417.041 116.01 417.041 116.342V140.921H396.723V116.342C396.723 116.01 396.683 115.68 396.605 115.358H417.16ZM366.244 115.004C366.459 115.417 366.572 115.876 366.572 116.342V142.232H389.513V116.342C389.513 115.876 389.625 115.417 389.84 115.004L390.326 114.048H365.759L366.244 115.004ZM388.32 115.358C388.241 115.68 388.201 116.01 388.202 116.342V140.921H367.883V116.342C367.883 116.01 367.844 115.68 367.765 115.358H388.32ZM337.405 115.004C337.62 115.417 337.732 115.876 337.733 116.342V142.232H360.673V116.342C360.673 115.876 360.786 115.417 361.001 115.004L361.486 114.048H336.92L337.405 115.004ZM359.48 115.358C359.401 115.68 359.362 116.01 359.362 116.342V140.921H339.043V116.342C339.044 116.01 339.004 115.68 338.925 115.358H359.48ZM308.565 115.004C308.78 115.417 308.893 115.876 308.893 116.342V142.232H331.833V116.342C331.834 115.876 331.946 115.417 332.161 115.004L332.646 114.048H308.08L308.565 115.004ZM330.641 115.358C330.562 115.68 330.522 116.01 330.523 116.342V140.921H310.204V116.342C310.204 116.01 310.164 115.68 310.086 115.358H330.641ZM279.726 115.004C279.941 115.417 280.053 115.876 280.053 116.342V142.232H302.994V116.342C302.994 115.876 303.107 115.417 303.322 115.004L303.807 114.048H279.24L279.726 115.004ZM301.801 115.358C301.722 115.68 301.683 116.01 301.683 116.342V140.921H281.364V116.342C281.365 116.01 281.325 115.68 281.246 115.358H301.801ZM250.886 115.004C251.101 115.417 251.213 115.876 251.214 116.342V142.232H274.154V116.342C274.155 115.876 274.267 115.417 274.482 115.004L274.967 114.048H250.401L250.886 115.004ZM272.961 115.358C272.883 115.68 272.843 116.01 272.843 116.342V140.921H252.525V116.342C252.525 116.01 252.485 115.68 252.406 115.358H272.961ZM222.046 115.004C222.261 115.417 222.374 115.876 222.374 116.342V142.232H245.315V116.342C245.315 115.876 245.427 115.417 245.642 115.004L246.128 114.048H221.561L222.046 115.004ZM244.122 115.358C244.043 115.68 244.003 116.01 244.004 116.342V140.921H223.685V116.342C223.685 116.01 223.646 115.68 223.567 115.358H244.122ZM193.207 115.004C193.422 115.417 193.534 115.876 193.534 116.342V142.232H216.475V116.342C216.475 115.876 216.588 115.417 216.803 115.004L217.288 114.048H192.722L193.207 115.004ZM215.282 115.358C215.203 115.68 215.164 116.01 215.164 116.342V140.921H194.845V116.342C194.846 116.01 194.806 115.68 194.727 115.358H215.282ZM473.41 146.164H465.597C465.166 144.657 464.257 143.33 463.006 142.384C461.755 141.438 460.23 140.925 458.662 140.921H454.402V116.342C454.404 115.814 454.303 115.291 454.107 114.801C454.849 114.364 455.428 113.694 455.752 112.896C456.076 112.097 456.129 111.214 455.901 110.383C455.674 109.552 455.179 108.818 454.494 108.296C453.808 107.774 452.97 107.491 452.108 107.493H188.619C187.757 107.491 186.918 107.774 186.233 108.296C185.547 108.818 185.052 109.552 184.825 110.383C184.598 111.214 184.65 112.097 184.975 112.896C185.299 113.694 185.877 114.364 186.62 114.801C186.423 115.291 186.323 115.814 186.325 116.342V140.921H182.064C180.496 140.925 178.972 141.438 177.721 142.384C176.47 143.33 175.56 144.657 175.13 146.164H166.661C165.097 146.167 163.598 146.789 162.493 147.895C161.387 149 160.765 150.5 160.762 152.063V498.139C160.766 499.702 161.388 501.201 162.494 502.306C163.599 503.412 165.098 504.034 166.661 504.038H473.41C474.974 504.035 476.473 503.413 477.578 502.307C478.684 501.202 479.306 499.702 479.309 498.139V152.063C479.306 150.5 478.684 149 477.578 147.895C476.473 146.789 474.974 146.167 473.41 146.164V146.164ZM477.998 498.139C477.997 499.075 477.709 499.989 477.174 500.758C476.638 501.526 475.881 502.113 475.003 502.438C474.494 502.632 473.954 502.73 473.41 502.727H166.661C166.117 502.73 165.577 502.632 165.068 502.438C164.19 502.113 163.432 501.526 162.897 500.758C162.362 499.989 162.074 499.075 162.073 498.139V152.063C162.074 150.847 162.558 149.681 163.418 148.821C164.279 147.96 165.445 147.477 166.661 147.475H176.178L176.283 146.951C176.559 145.62 177.284 144.425 178.336 143.566C179.389 142.706 180.705 142.235 182.064 142.232H187.635V116.342C187.636 115.808 187.781 115.285 188.055 114.827L188.461 114.152L187.721 113.877C187.142 113.667 186.656 113.26 186.348 112.727C186.04 112.194 185.93 111.569 186.037 110.963C186.144 110.357 186.462 109.808 186.934 109.413C187.406 109.018 188.003 108.802 188.619 108.804H452.108C452.723 108.802 453.32 109.018 453.792 109.413C454.264 109.808 454.582 110.357 454.689 110.963C454.797 111.569 454.687 112.194 454.379 112.727C454.071 113.26 453.585 113.667 453.006 113.877L452.265 114.152L452.671 114.827C452.946 115.285 453.091 115.808 453.091 116.342V142.232H458.662C460.021 142.235 461.337 142.706 462.39 143.566C463.443 144.425 464.168 145.62 464.443 146.951L464.548 147.475H473.41C474.626 147.477 475.792 147.96 476.652 148.821C477.513 149.681 477.996 150.847 477.998 152.063L477.998 498.139ZM192.722 114.048L193.207 115.004C193.422 115.417 193.534 115.876 193.534 116.342V142.232H216.475V116.342C216.475 115.876 216.588 115.417 216.803 115.004L217.288 114.048H192.722ZM215.164 116.342V140.921H194.845V116.342C194.846 116.01 194.806 115.68 194.727 115.358H215.282C215.203 115.68 215.164 116.01 215.164 116.342V116.342ZM221.561 114.048L222.046 115.004C222.261 115.417 222.374 115.876 222.374 116.342V142.232H245.315V116.342C245.315 115.876 245.427 115.417 245.642 115.004L246.128 114.048H221.561ZM244.004 116.342V140.921H223.685V116.342C223.685 116.01 223.646 115.68 223.567 115.358H244.122C244.043 115.68 244.003 116.01 244.004 116.342V116.342ZM250.401 114.048L250.886 115.004C251.101 115.417 251.213 115.876 251.214 116.342V142.232H274.154V116.342C274.155 115.876 274.267 115.417 274.482 115.004L274.967 114.048H250.401ZM272.843 116.342V140.921H252.525V116.342C252.525 116.01 252.485 115.68 252.406 115.358H272.961C272.883 115.68 272.843 116.01 272.843 116.342V116.342ZM279.24 114.048L279.726 115.004C279.941 115.417 280.053 115.876 280.053 116.342V142.232H302.994V116.342C302.994 115.876 303.107 115.417 303.322 115.004L303.807 114.048H279.24ZM301.683 116.342V140.921H281.364V116.342C281.365 116.01 281.325 115.68 281.246 115.358H301.801C301.722 115.68 301.683 116.01 301.683 116.342V116.342ZM308.08 114.048L308.565 115.004C308.78 115.417 308.893 115.876 308.893 116.342V142.232H331.833V116.342C331.834 115.876 331.946 115.417 332.161 115.004L332.646 114.048H308.08ZM330.523 116.342V140.921H310.204V116.342C310.204 116.01 310.164 115.68 310.086 115.358H330.641C330.562 115.68 330.522 116.01 330.523 116.342V116.342ZM336.92 114.048L337.405 115.004C337.62 115.417 337.732 115.876 337.733 116.342V142.232H360.673V116.342C360.673 115.876 360.786 115.417 361.001 115.004L361.486 114.048H336.92ZM359.362 116.342V140.921H339.043V116.342C339.044 116.01 339.004 115.68 338.925 115.358H359.48C359.401 115.68 359.362 116.01 359.362 116.342V116.342ZM365.759 114.048L366.244 115.004C366.459 115.417 366.572 115.876 366.572 116.342V142.232H389.513V116.342C389.513 115.876 389.625 115.417 389.84 115.004L390.326 114.048H365.759ZM388.202 116.342V140.921H367.883V116.342C367.883 116.01 367.844 115.68 367.765 115.358H388.32C388.241 115.68 388.201 116.01 388.202 116.342V116.342ZM394.599 114.048L395.084 115.004C395.299 115.417 395.411 115.876 395.412 116.342V142.232H418.352V116.342C418.353 115.876 418.465 115.417 418.68 115.004L419.165 114.048H394.599ZM417.041 116.342V140.921H396.723V116.342C396.723 116.01 396.683 115.68 396.605 115.358H417.16C417.081 115.68 417.041 116.01 417.041 116.342V116.342ZM423.438 114.048L423.924 115.004C424.139 115.417 424.251 115.876 424.251 116.342V142.232H447.192V116.342C447.192 115.876 447.305 115.417 447.52 115.004L448.005 114.048H423.438ZM445.881 116.342V140.921H425.562V116.342C425.563 116.01 425.523 115.68 425.444 115.358H445.999C445.92 115.68 445.881 116.01 445.881 116.342V116.342ZM192.722 114.048L193.207 115.004C193.422 115.417 193.534 115.876 193.534 116.342V142.232H216.475V116.342C216.475 115.876 216.588 115.417 216.803 115.004L217.288 114.048H192.722ZM215.164 116.342V140.921H194.845V116.342C194.846 116.01 194.806 115.68 194.727 115.358H215.282C215.203 115.68 215.164 116.01 215.164 116.342V116.342ZM221.561 114.048L222.046 115.004C222.261 115.417 222.374 115.876 222.374 116.342V142.232H245.315V116.342C245.315 115.876 245.427 115.417 245.642 115.004L246.128 114.048H221.561ZM244.004 116.342V140.921H223.685V116.342C223.685 116.01 223.646 115.68 223.567 115.358H244.122C244.043 115.68 244.003 116.01 244.004 116.342V116.342ZM250.401 114.048L250.886 115.004C251.101 115.417 251.213 115.876 251.214 116.342V142.232H274.154V116.342C274.155 115.876 274.267 115.417 274.482 115.004L274.967 114.048H250.401ZM272.843 116.342V140.921H252.525V116.342C252.525 116.01 252.485 115.68 252.406 115.358H272.961C272.883 115.68 272.843 116.01 272.843 116.342V116.342ZM279.24 114.048L279.726 115.004C279.941 115.417 280.053 115.876 280.053 116.342V142.232H302.994V116.342C302.994 115.876 303.107 115.417 303.322 115.004L303.807 114.048H279.24ZM301.683 116.342V140.921H281.364V116.342C281.365 116.01 281.325 115.68 281.246 115.358H301.801C301.722 115.68 301.683 116.01 301.683 116.342V116.342ZM308.08 114.048L308.565 115.004C308.78 115.417 308.893 115.876 308.893 116.342V142.232H331.833V116.342C331.834 115.876 331.946 115.417 332.161 115.004L332.646 114.048H308.08ZM330.523 116.342V140.921H310.204V116.342C310.204 116.01 310.164 115.68 310.086 115.358H330.641C330.562 115.68 330.522 116.01 330.523 116.342V116.342ZM336.92 114.048L337.405 115.004C337.62 115.417 337.732 115.876 337.733 116.342V142.232H360.673V116.342C360.673 115.876 360.786 115.417 361.001 115.004L361.486 114.048H336.92ZM359.362 116.342V140.921H339.043V116.342C339.044 116.01 339.004 115.68 338.925 115.358H359.48C359.401 115.68 359.362 116.01 359.362 116.342V116.342ZM365.759 114.048L366.244 115.004C366.459 115.417 366.572 115.876 366.572 116.342V142.232H389.513V116.342C389.513 115.876 389.625 115.417 389.84 115.004L390.326 114.048H365.759ZM388.202 116.342V140.921H367.883V116.342C367.883 116.01 367.844 115.68 367.765 115.358H388.32C388.241 115.68 388.201 116.01 388.202 116.342V116.342ZM394.599 114.048L395.084 115.004C395.299 115.417 395.411 115.876 395.412 116.342V142.232H418.352V116.342C418.353 115.876 418.465 115.417 418.68 115.004L419.165 114.048H394.599ZM417.041 116.342V140.921H396.723V116.342C396.723 116.01 396.683 115.68 396.605 115.358H417.16C417.081 115.68 417.041 116.01 417.041 116.342V116.342ZM423.438 114.048L423.924 115.004C424.139 115.417 424.251 115.876 424.251 116.342V142.232H447.192V116.342C447.192 115.876 447.305 115.417 447.52 115.004L448.005 114.048H423.438ZM445.881 116.342V140.921H425.562V116.342C425.563 116.01 425.523 115.68 425.444 115.358H445.999C445.92 115.68 445.881 116.01 445.881 116.342V116.342ZM192.722 114.048L193.207 115.004C193.422 115.417 193.534 115.876 193.534 116.342V142.232H216.475V116.342C216.475 115.876 216.588 115.417 216.803 115.004L217.288 114.048H192.722ZM215.164 116.342V140.921H194.845V116.342C194.846 116.01 194.806 115.68 194.727 115.358H215.282C215.203 115.68 215.164 116.01 215.164 116.342V116.342ZM221.561 114.048L222.046 115.004C222.261 115.417 222.374 115.876 222.374 116.342V142.232H245.315V116.342C245.315 115.876 245.427 115.417 245.642 115.004L246.128 114.048H221.561ZM244.004 116.342V140.921H223.685V116.342C223.685 116.01 223.646 115.68 223.567 115.358H244.122C244.043 115.68 244.003 116.01 244.004 116.342V116.342ZM250.401 114.048L250.886 115.004C251.101 115.417 251.213 115.876 251.214 116.342V142.232H274.154V116.342C274.155 115.876 274.267 115.417 274.482 115.004L274.967 114.048H250.401ZM272.843 116.342V140.921H252.525V116.342C252.525 116.01 252.485 115.68 252.406 115.358H272.961C272.883 115.68 272.843 116.01 272.843 116.342V116.342ZM279.24 114.048L279.726 115.004C279.941 115.417 280.053 115.876 280.053 116.342V142.232H302.994V116.342C302.994 115.876 303.107 115.417 303.322 115.004L303.807 114.048H279.24ZM301.683 116.342V140.921H281.364V116.342C281.365 116.01 281.325 115.68 281.246 115.358H301.801C301.722 115.68 301.683 116.01 301.683 116.342V116.342ZM308.08 114.048L308.565 115.004C308.78 115.417 308.893 115.876 308.893 116.342V142.232H331.833V116.342C331.834 115.876 331.946 115.417 332.161 115.004L332.646 114.048H308.08ZM330.523 116.342V140.921H310.204V116.342C310.204 116.01 310.164 115.68 310.086 115.358H330.641C330.562 115.68 330.522 116.01 330.523 116.342V116.342ZM336.92 114.048L337.405 115.004C337.62 115.417 337.732 115.876 337.733 116.342V142.232H360.673V116.342C360.673 115.876 360.786 115.417 361.001 115.004L361.486 114.048H336.92ZM359.362 116.342V140.921H339.043V116.342C339.044 116.01 339.004 115.68 338.925 115.358H359.48C359.401 115.68 359.362 116.01 359.362 116.342V116.342ZM365.759 114.048L366.244 115.004C366.459 115.417 366.572 115.876 366.572 116.342V142.232H389.513V116.342C389.513 115.876 389.625 115.417 389.84 115.004L390.326 114.048H365.759ZM388.202 116.342V140.921H367.883V116.342C367.883 116.01 367.844 115.68 367.765 115.358H388.32C388.241 115.68 388.201 116.01 388.202 116.342V116.342ZM394.599 114.048L395.084 115.004C395.299 115.417 395.411 115.876 395.412 116.342V142.232H418.352V116.342C418.353 115.876 418.465 115.417 418.68 115.004L419.165 114.048H394.599ZM417.041 116.342V140.921H396.723V116.342C396.723 116.01 396.683 115.68 396.605 115.358H417.16C417.081 115.68 417.041 116.01 417.041 116.342V116.342ZM423.438 114.048L423.924 115.004C424.139 115.417 424.251 115.876 424.251 116.342V142.232H447.192V116.342C447.192 115.876 447.305 115.417 447.52 115.004L448.005 114.048H423.438ZM445.881 116.342V140.921H425.562V116.342C425.563 116.01 425.523 115.68 425.444 115.358H445.999C445.92 115.68 445.881 116.01 445.881 116.342V116.342ZM192.722 114.048L193.207 115.004C193.422 115.417 193.534 115.876 193.534 116.342V142.232H216.475V116.342C216.475 115.876 216.588 115.417 216.803 115.004L217.288 114.048H192.722ZM215.164 116.342V140.921H194.845V116.342C194.846 116.01 194.806 115.68 194.727 115.358H215.282C215.203 115.68 215.164 116.01 215.164 116.342V116.342ZM221.561 114.048L222.046 115.004C222.261 115.417 222.374 115.876 222.374 116.342V142.232H245.315V116.342C245.315 115.876 245.427 115.417 245.642 115.004L246.128 114.048H221.561ZM244.004 116.342V140.921H223.685V116.342C223.685 116.01 223.646 115.68 223.567 115.358H244.122C244.043 115.68 244.003 116.01 244.004 116.342V116.342ZM250.401 114.048L250.886 115.004C251.101 115.417 251.213 115.876 251.214 116.342V142.232H274.154V116.342C274.155 115.876 274.267 115.417 274.482 115.004L274.967 114.048H250.401ZM272.843 116.342V140.921H252.525V116.342C252.525 116.01 252.485 115.68 252.406 115.358H272.961C272.883 115.68 272.843 116.01 272.843 116.342V116.342ZM279.24 114.048L279.726 115.004C279.941 115.417 280.053 115.876 280.053 116.342V142.232H302.994V116.342C302.994 115.876 303.107 115.417 303.322 115.004L303.807 114.048H279.24ZM301.683 116.342V140.921H281.364V116.342C281.365 116.01 281.325 115.68 281.246 115.358H301.801C301.722 115.68 301.683 116.01 301.683 116.342V116.342ZM308.08 114.048L308.565 115.004C308.78 115.417 308.893 115.876 308.893 116.342V142.232H331.833V116.342C331.834 115.876 331.946 115.417 332.161 115.004L332.646 114.048H308.08ZM330.523 116.342V140.921H310.204V116.342C310.204 116.01 310.164 115.68 310.086 115.358H330.641C330.562 115.68 330.522 116.01 330.523 116.342V116.342ZM336.92 114.048L337.405 115.004C337.62 115.417 337.732 115.876 337.733 116.342V142.232H360.673V116.342C360.673 115.876 360.786 115.417 361.001 115.004L361.486 114.048H336.92ZM359.362 116.342V140.921H339.043V116.342C339.044 116.01 339.004 115.68 338.925 115.358H359.48C359.401 115.68 359.362 116.01 359.362 116.342V116.342ZM365.759 114.048L366.244 115.004C366.459 115.417 366.572 115.876 366.572 116.342V142.232H389.513V116.342C389.513 115.876 389.625 115.417 389.84 115.004L390.326 114.048H365.759ZM388.202 116.342V140.921H367.883V116.342C367.883 116.01 367.844 115.68 367.765 115.358H388.32C388.241 115.68 388.201 116.01 388.202 116.342V116.342ZM394.599 114.048L395.084 115.004C395.299 115.417 395.411 115.876 395.412 116.342V142.232H418.352V116.342C418.353 115.876 418.465 115.417 418.68 115.004L419.165 114.048H394.599ZM417.041 116.342V140.921H396.723V116.342C396.723 116.01 396.683 115.68 396.605 115.358H417.16C417.081 115.68 417.041 116.01 417.041 116.342V116.342ZM423.438 114.048L423.924 115.004C424.139 115.417 424.251 115.876 424.251 116.342V142.232H447.192V116.342C447.192 115.876 447.305 115.417 447.52 115.004L448.005 114.048H423.438ZM445.881 116.342V140.921H425.562V116.342C425.563 116.01 425.523 115.68 425.444 115.358H445.999C445.92 115.68 445.881 116.01 445.881 116.342V116.342Z" fill="#3F3D56"/>
<path d="M270.649 228.75H222.314C221.296 228.749 220.32 228.344 219.601 227.625C218.881 226.905 218.476 225.929 218.475 224.911V199.162C218.476 198.144 218.881 197.168 219.601 196.449C220.32 195.729 221.296 195.324 222.314 195.323H270.649C271.667 195.324 272.643 195.729 273.363 196.449C274.083 197.168 274.488 198.144 274.489 199.162V224.911C274.488 225.929 274.083 226.905 273.363 227.625C272.643 228.344 271.667 228.749 270.649 228.75V228.75Z" fill="#6C63FF"/>
<path d="M344.203 228.75H295.868C294.85 228.749 293.874 228.344 293.154 227.625C292.435 226.905 292.03 225.929 292.028 224.911V199.162C292.03 198.144 292.435 197.168 293.154 196.449C293.874 195.729 294.85 195.324 295.868 195.323H344.203C345.221 195.324 346.197 195.729 346.917 196.449C347.636 197.168 348.041 198.144 348.042 199.162V224.911C348.041 225.929 347.636 226.905 346.917 227.625C346.197 228.344 345.221 228.749 344.203 228.75V228.75Z" fill="#6C63FF"/>
<path d="M417.757 228.75H369.422C368.404 228.749 367.428 228.344 366.708 227.625C365.988 226.905 365.583 225.929 365.582 224.911V199.162C365.583 198.144 365.988 197.168 366.708 196.449C367.428 195.729 368.404 195.324 369.422 195.323H417.757C418.775 195.324 419.751 195.729 420.47 196.449C421.19 197.168 421.595 198.144 421.596 199.162V224.911C421.595 225.929 421.19 226.905 420.47 227.625C419.751 228.344 418.775 228.749 417.757 228.75V228.75Z" fill="#6C63FF"/>
<path d="M270.649 314.614H222.314C221.296 314.613 220.32 314.208 219.601 313.488C218.881 312.768 218.476 311.792 218.475 310.774V285.026C218.476 284.008 218.881 283.032 219.601 282.312C220.32 281.592 221.296 281.187 222.314 281.186H270.649C271.667 281.187 272.643 281.592 273.363 282.312C274.083 283.032 274.488 284.008 274.489 285.026V310.774C274.488 311.792 274.083 312.768 273.363 313.488C272.643 314.208 271.667 314.613 270.649 314.614V314.614Z" fill="#6C63FF"/>
<path d="M344.203 314.614H295.868C294.85 314.613 293.874 314.208 293.154 313.488C292.435 312.768 292.03 311.792 292.028 310.774V285.026C292.03 284.008 292.435 283.032 293.154 282.312C293.874 281.592 294.85 281.187 295.868 281.186H344.203C345.221 281.187 346.197 281.592 346.917 282.312C347.636 283.032 348.041 284.008 348.042 285.026V310.774C348.041 311.792 347.636 312.768 346.917 313.488C346.197 314.208 345.221 314.613 344.203 314.614V314.614Z" fill="#6C63FF"/>
<path d="M417.757 314.614H369.422C368.404 314.613 367.428 314.208 366.708 313.488C365.988 312.768 365.583 311.792 365.582 310.774V285.026C365.583 284.008 365.988 283.032 366.708 282.312C367.428 281.592 368.404 281.187 369.422 281.186H417.757C418.775 281.187 419.751 281.592 420.47 282.312C421.19 283.032 421.595 284.008 421.596 285.026V310.774C421.595 311.792 421.19 312.768 420.47 313.488C419.751 314.208 418.775 314.613 417.757 314.614V314.614Z" fill="#6C63FF"/>
<path d="M270.649 400.477H222.314C221.296 400.476 220.32 400.071 219.601 399.351C218.881 398.632 218.476 397.656 218.475 396.638V370.889C218.476 369.871 218.881 368.895 219.601 368.175C220.32 367.456 221.296 367.051 222.314 367.05H270.649C271.667 367.051 272.643 367.456 273.363 368.175C274.083 368.895 274.488 369.871 274.489 370.889V396.638C274.488 397.656 274.083 398.632 273.363 399.351C272.643 400.071 271.667 400.476 270.649 400.477V400.477Z" fill="#6C63FF"/>
<path d="M344.203 400.477H295.868C294.85 400.476 293.874 400.071 293.154 399.351C292.435 398.632 292.03 397.656 292.028 396.638V370.889C292.03 369.871 292.435 368.895 293.154 368.175C293.874 367.456 294.85 367.051 295.868 367.05H344.203C345.221 367.051 346.197 367.456 346.917 368.175C347.636 368.895 348.041 369.871 348.042 370.889V396.638C348.041 397.656 347.636 398.632 346.917 399.351C346.197 400.071 345.221 400.476 344.203 400.477V400.477Z" fill="#6C63FF"/>
<path d="M417.757 400.477H369.422C368.404 400.476 367.428 400.071 366.708 399.351C365.988 398.632 365.583 397.656 365.582 396.638V370.889C365.583 369.871 365.988 368.895 366.708 368.175C367.428 367.456 368.404 367.051 369.422 367.05H417.757C418.775 367.051 419.751 367.456 420.47 368.175C421.19 368.895 421.595 369.871 421.596 370.889V396.638C421.595 397.656 421.19 398.632 420.47 399.351C419.751 400.071 418.775 400.476 417.757 400.477V400.477Z" fill="#6C63FF"/>
<path d="M262.824 232.054H206.831C205.478 232.053 204.181 231.514 203.224 230.558C202.267 229.601 201.729 228.304 201.728 226.951V197.123C201.729 195.77 202.267 194.472 203.224 193.516C204.181 192.559 205.478 192.021 206.831 192.019H262.824C264.177 192.021 265.474 192.559 266.431 193.516C267.388 194.472 267.926 195.77 267.928 197.123V226.951C267.926 228.304 267.388 229.601 266.431 230.558C265.474 231.515 264.177 232.053 262.824 232.054V232.054ZM206.831 193.33C205.825 193.331 204.861 193.731 204.15 194.442C203.439 195.153 203.04 196.117 203.038 197.123V226.951C203.04 227.956 203.439 228.92 204.15 229.631C204.861 230.342 205.825 230.742 206.831 230.743H262.824C263.83 230.742 264.794 230.342 265.505 229.631C266.216 228.92 266.616 227.956 266.617 226.951V197.123C266.616 196.117 266.216 195.153 265.505 194.442C264.794 193.731 263.83 193.331 262.824 193.33H206.831Z" fill="#3F3D56"/>
<path d="M348.032 232.054H292.039C290.686 232.053 289.389 231.515 288.432 230.558C287.475 229.601 286.937 228.304 286.935 226.951V197.123C286.937 195.77 287.475 194.472 288.432 193.516C289.389 192.559 290.686 192.021 292.039 192.019H348.032C349.385 192.021 350.682 192.559 351.639 193.516C352.596 194.472 353.134 195.77 353.135 197.123V226.951C353.134 228.304 352.596 229.601 351.639 230.558C350.682 231.515 349.385 232.053 348.032 232.054ZM292.039 193.33C291.033 193.331 290.069 193.731 289.358 194.442C288.647 195.153 288.247 196.117 288.246 197.123V226.951C288.247 227.956 288.647 228.92 289.358 229.631C290.069 230.342 291.033 230.742 292.039 230.743H348.032C349.037 230.742 350.002 230.342 350.713 229.631C351.424 228.92 351.823 227.956 351.825 226.951V197.123C351.823 196.117 351.424 195.153 350.713 194.442C350.002 193.731 349.037 193.331 348.032 193.33H292.039Z" fill="#3F3D56"/>
<path d="M433.24 232.054H377.247C375.894 232.053 374.597 231.515 373.64 230.558C372.683 229.601 372.145 228.304 372.143 226.951V197.123C372.145 195.77 372.683 194.472 373.64 193.516C374.597 192.559 375.894 192.021 377.247 192.019H433.24C434.593 192.021 435.89 192.559 436.847 193.516C437.804 194.472 438.342 195.77 438.343 197.123V226.951C438.342 228.304 437.804 229.601 436.847 230.558C435.89 231.515 434.593 232.053 433.24 232.054ZM377.247 193.33C376.241 193.331 375.277 193.731 374.566 194.442C373.855 195.153 373.455 196.117 373.454 197.123V226.951C373.455 227.956 373.855 228.92 374.566 229.631C375.277 230.342 376.241 230.742 377.247 230.743H433.24C434.245 230.742 435.209 230.342 435.92 229.631C436.631 228.92 437.031 227.956 437.032 226.951V197.123C437.031 196.117 436.631 195.153 435.92 194.442C435.209 193.731 434.245 193.331 433.24 193.33H377.247Z" fill="#3F3D56"/>
<path d="M262.824 317.918H206.831C205.478 317.916 204.181 317.378 203.224 316.421C202.267 315.464 201.729 314.167 201.728 312.814V282.986C201.729 281.633 202.267 280.336 203.224 279.379C204.181 278.422 205.478 277.884 206.831 277.882H262.824C264.177 277.884 265.474 278.422 266.431 279.379C267.388 280.336 267.926 281.633 267.928 282.986V312.814C267.926 314.167 267.388 315.464 266.431 316.421C265.474 317.378 264.177 317.916 262.824 317.918V317.918ZM206.831 279.193C205.825 279.194 204.861 279.594 204.15 280.305C203.439 281.016 203.04 281.98 203.038 282.986V312.814C203.04 313.819 203.439 314.784 204.15 315.495C204.861 316.206 205.825 316.606 206.831 316.607H262.824C263.83 316.606 264.794 316.206 265.505 315.495C266.216 314.784 266.616 313.819 266.617 312.814V282.986C266.616 281.98 266.216 281.016 265.505 280.305C264.794 279.594 263.83 279.194 262.824 279.193H206.831Z" fill="#3F3D56"/>
<path d="M348.032 317.918H292.039C290.686 317.916 289.389 317.378 288.432 316.421C287.475 315.464 286.937 314.167 286.935 312.814V282.986C286.937 281.633 287.475 280.336 288.432 279.379C289.389 278.422 290.686 277.884 292.039 277.882H348.032C349.385 277.884 350.682 278.422 351.639 279.379C352.596 280.336 353.134 281.633 353.135 282.986V312.814C353.134 314.167 352.596 315.464 351.639 316.421C350.682 317.378 349.385 317.916 348.032 317.918ZM292.039 279.193C291.033 279.194 290.069 279.594 289.358 280.305C288.647 281.016 288.247 281.98 288.246 282.986V312.814C288.247 313.819 288.647 314.784 289.358 315.495C290.069 316.206 291.033 316.606 292.039 316.607H348.032C349.037 316.606 350.002 316.206 350.713 315.495C351.424 314.784 351.823 313.819 351.825 312.814V282.986C351.823 281.98 351.424 281.016 350.713 280.305C350.002 279.594 349.037 279.194 348.032 279.193H292.039Z" fill="#3F3D56"/>
<path d="M433.24 317.918H377.247C375.894 317.916 374.597 317.378 373.64 316.421C372.683 315.464 372.145 314.167 372.143 312.814V282.986C372.145 281.633 372.683 280.336 373.64 279.379C374.597 278.422 375.894 277.884 377.247 277.882H433.24C434.593 277.884 435.89 278.422 436.847 279.379C437.804 280.336 438.342 281.633 438.343 282.986V312.814C438.342 314.167 437.804 315.464 436.847 316.421C435.89 317.378 434.593 317.916 433.24 317.918ZM377.247 279.193C376.241 279.194 375.277 279.594 374.566 280.305C373.855 281.016 373.455 281.98 373.454 282.986V312.814C373.455 313.819 373.855 314.784 374.566 315.495C375.277 316.206 376.241 316.606 377.247 316.607H433.24C434.245 316.606 435.209 316.206 435.92 315.495C436.631 314.784 437.031 313.819 437.032 312.814V282.986C437.031 281.98 436.631 281.016 435.92 280.305C435.209 279.594 434.245 279.194 433.24 279.193H377.247Z" fill="#3F3D56"/>
<path d="M262.824 403.781H206.831C205.478 403.779 204.181 403.241 203.224 402.284C202.267 401.328 201.729 400.03 201.728 398.677V368.849C201.729 367.496 202.267 366.199 203.224 365.242C204.181 364.286 205.478 363.747 206.831 363.746H262.824C264.177 363.747 265.474 364.285 266.431 365.242C267.388 366.199 267.926 367.496 267.928 368.849V398.677C267.926 400.03 267.388 401.328 266.431 402.284C265.474 403.241 264.177 403.779 262.824 403.781V403.781ZM206.831 365.057C205.825 365.058 204.861 365.458 204.15 366.169C203.439 366.88 203.04 367.844 203.038 368.849V398.677C203.04 399.683 203.439 400.647 204.15 401.358C204.861 402.069 205.825 402.469 206.831 402.47H262.824C263.83 402.469 264.794 402.069 265.505 401.358C266.216 400.647 266.616 399.683 266.617 398.677V368.849C266.616 367.844 266.216 366.88 265.505 366.169C264.794 365.458 263.83 365.058 262.824 365.057H206.831Z" fill="#3F3D56"/>
<path d="M348.032 403.781H292.039C290.686 403.779 289.389 403.241 288.432 402.284C287.475 401.328 286.937 400.03 286.935 398.677V368.849C286.937 367.496 287.475 366.199 288.432 365.242C289.389 364.285 290.686 363.747 292.039 363.746H348.032C349.385 363.747 350.682 364.285 351.639 365.242C352.596 366.199 353.134 367.496 353.135 368.849V398.677C353.134 400.03 352.596 401.328 351.639 402.284C350.682 403.241 349.385 403.779 348.032 403.781V403.781ZM292.039 365.057C291.033 365.058 290.069 365.458 289.358 366.169C288.647 366.88 288.247 367.844 288.246 368.849V398.677C288.247 399.683 288.647 400.647 289.358 401.358C290.069 402.069 291.033 402.469 292.039 402.47H348.032C349.037 402.469 350.002 402.069 350.713 401.358C351.424 400.647 351.823 399.683 351.825 398.677V368.849C351.823 367.844 351.424 366.88 350.713 366.169C350.002 365.458 349.037 365.058 348.032 365.057H292.039Z" fill="#3F3D56"/>
<path d="M433.24 403.781H377.247C375.894 403.779 374.597 403.241 373.64 402.284C372.683 401.328 372.145 400.03 372.143 398.677V368.849C372.145 367.496 372.683 366.199 373.64 365.242C374.597 364.285 375.894 363.747 377.247 363.746H433.24C434.593 363.747 435.89 364.285 436.847 365.242C437.804 366.199 438.342 367.496 438.343 368.849V398.677C438.342 400.03 437.804 401.328 436.847 402.284C435.89 403.241 434.593 403.779 433.24 403.781V403.781ZM377.247 365.057C376.241 365.058 375.277 365.458 374.566 366.169C373.855 366.88 373.455 367.844 373.454 368.849V398.677C373.455 399.683 373.855 400.647 374.566 401.358C375.277 402.069 376.241 402.469 377.247 402.47H433.24C434.245 402.469 435.209 402.069 435.92 401.358C436.631 400.647 437.031 399.683 437.032 398.677V368.849C437.031 367.844 436.631 366.88 435.92 366.169C435.209 365.458 434.245 365.058 433.24 365.057H377.247Z" fill="#3F3D56"/>
<path d="M661.345 505.021H0.655446C0.481611 505.021 0.314895 504.952 0.191975 504.829C0.0690552 504.706 0 504.539 0 504.365C0 504.192 0.0690552 504.025 0.191975 503.902C0.314895 503.779 0.481611 503.71 0.655446 503.71H661.345C661.518 503.71 661.685 503.779 661.808 503.902C661.931 504.025 662 504.192 662 504.365C662 504.539 661.931 504.706 661.808 504.829C661.685 504.952 661.518 505.021 661.345 505.021Z" fill="#3F3D56"/>
<path d="M353.135 441.581C353.154 440.085 352.577 438.643 351.532 437.572C350.487 436.502 349.06 435.89 347.564 435.871H320.035V503.71H353.135V441.581Z" fill="#3F3D56"/>
<path d="M320.691 503.054H286.28V441.77C286.282 440.119 286.939 438.537 288.106 437.369C289.273 436.202 290.856 435.545 292.507 435.544H320.691V503.054ZM287.591 501.744H319.38V436.854H292.507C291.203 436.856 289.954 437.374 289.032 438.296C288.111 439.217 287.592 440.467 287.591 441.77V501.744Z" fill="#3F3D56"/>
<path d="M290.54 473.887C291.626 473.887 292.507 473.007 292.507 471.921C292.507 470.835 291.626 469.954 290.54 469.954C289.454 469.954 288.574 470.835 288.574 471.921C288.574 473.007 289.454 473.887 290.54 473.887Z" fill="#3F3D56"/>
</g>
<defs>
<clipPath id="clip0">
<rect width="662" height="505.062" fill="white"/>
</clipPath>
</defs>
</svg>
