<svg width="85" height="85" viewBox="0 0 85 85" fill="none" xmlns="http://www.w3.org/2000/svg">
<path d="M54.0539 35.9056C54.0539 39.3664 51.2346 42.1858 47.7738 42.1858H35.9056V29.6254H47.7738C51.2346 29.6254 54.0539 32.4447 54.0539 35.9056ZM84.0536 42.1858C84.0536 65.3144 65.3144 84.0536 42.1858 84.0536C19.0571 84.0536 0.317871 65.3144 0.317871 42.1858C0.317871 19.0571 19.0571 0.317871 42.1858 0.317871C65.3144 0.317871 84.0536 19.0571 84.0536 42.1858ZM62.4275 35.9056C62.4275 27.819 55.8603 21.2518 47.7738 21.2518H27.532V63.1197H35.9056V50.5593H47.7738C55.8603 50.5593 62.4275 43.9922 62.4275 35.9056Z" fill="black"/>
</svg>
